<svg width="16" height="16" viewBox="0 0 16 16" fill="none" xmlns="http://www.w3.org/2000/svg">
<g id="Cold Brew">
<path id="Vector" d="M13.4773 4.27664L13.3893 3.83264C13.31 3.43397 13.1307 3.05731 12.722 2.91331C12.5907 2.86731 12.442 2.84797 12.342 2.75264C12.2407 2.65731 12.2113 2.50864 12.188 2.37131C12.1447 2.11931 12.1047 1.86731 12.06 1.61597C12.022 1.39931 11.992 1.15597 11.8933 0.957974C11.7633 0.691307 11.4953 0.535307 11.2293 0.432641C11.0928 0.381593 10.9535 0.338411 10.812 0.303307C10.1453 0.127974 9.44533 0.0633073 8.76066 0.0259739C7.93851 -0.0192302 7.11417 -0.00541698 6.29399 0.0673073C5.68399 0.122641 5.04066 0.189974 4.46066 0.400641C4.24866 0.477974 4.02999 0.571307 3.86866 0.734641C3.67066 0.935974 3.60666 1.24797 3.75066 1.49864C3.85333 1.67664 4.02733 1.80264 4.21199 1.88531C4.45199 1.99331 4.70333 2.07464 4.96066 2.12931C5.67733 2.28797 6.41999 2.34997 7.15199 2.37597C7.96399 2.40931 8.77666 2.38264 9.58533 2.29731C9.78466 2.27531 9.98399 2.24864 10.1827 2.21797C10.4173 2.18197 10.568 1.87597 10.4987 1.66197C10.416 1.40664 10.194 1.30797 9.94266 1.34664C9.63199 1.39597 9.30266 1.41864 9.02133 1.44397C8.23666 1.49731 7.44933 1.49864 6.66399 1.44797C6.40631 1.43092 6.14911 1.40714 5.89266 1.37664C5.83533 1.36997 5.77266 1.35997 5.72066 1.35264C5.55866 1.32864 5.39799 1.29931 5.23799 1.26597C5.16399 1.24797 5.16399 1.14264 5.23799 1.12464H5.24133C5.42599 1.08464 5.61266 1.05264 5.79999 1.02664H5.80133C5.88866 1.02064 5.97666 1.00531 6.06399 0.994641C6.82261 0.915904 7.58573 0.889175 8.34799 0.914641C8.79733 0.927307 9.24599 0.959307 9.69266 1.01064L9.84466 1.03131C10.0227 1.05797 10.2 1.08997 10.3767 1.12797C10.638 1.18464 10.9733 1.20331 11.09 1.48931C11.1267 1.58064 11.1433 1.68131 11.164 1.77664L11.3767 2.76597C11.3812 2.78719 11.3813 2.8091 11.3769 2.83035C11.3726 2.8516 11.364 2.87174 11.3515 2.8895C11.3391 2.90726 11.3231 2.92227 11.3046 2.93359C11.2861 2.94491 11.2655 2.9523 11.244 2.95531H11.242C11.2173 2.95931 11.192 2.96197 11.1673 2.96531C10.1187 3.0991 9.06247 3.16479 8.00533 3.16197C6.95786 3.16089 5.91153 3.0932 4.87266 2.95931C4.77933 2.94797 4.67733 2.93131 4.59466 2.91931C4.37733 2.88731 4.16199 2.84731 3.94599 2.81197C3.68399 2.76864 3.43399 2.79064 3.19733 2.91931C3.00399 3.02597 2.84599 3.18864 2.74733 3.38664C2.64466 3.59731 2.61466 3.82664 2.56933 4.05331C2.52333 4.27997 2.45199 4.52464 2.47933 4.75731C2.53733 5.25931 2.88799 5.66731 3.39266 5.75864C5.8883 6.20401 8.435 6.28843 10.9547 6.00931C11.0025 6.00386 11.051 6.00923 11.0965 6.02501C11.1421 6.04079 11.1835 6.06658 11.2177 6.10049C11.2519 6.1344 11.2781 6.17555 11.2943 6.22092C11.3105 6.26629 11.3163 6.31472 11.3113 6.36264L11.264 6.82731L10.5853 13.432C10.558 13.7053 10.554 13.9866 10.502 14.2566C10.4207 14.6813 10.1333 14.942 9.71399 15.0373C9.32933 15.1246 8.93733 15.1706 8.54333 15.174C8.10599 15.1766 7.66999 15.1573 7.23266 15.1593C6.76666 15.162 6.19533 15.1193 5.83599 14.7726C5.51933 14.4673 5.47599 13.99 5.43266 13.5773L4.94533 8.90197L4.73066 6.83931C4.70599 6.60531 4.53999 6.37597 4.27866 6.38731C4.05466 6.39731 3.79999 6.58731 3.82666 6.83997L3.97866 8.29664L4.61133 14.3713C4.70933 15.2673 5.39399 15.75 6.24199 15.886C6.73666 15.966 7.24399 15.982 7.74666 15.99C8.39066 16.0006 9.04133 16.0253 9.67466 15.9086C10.6133 15.7366 11.318 15.11 11.4187 14.1373C11.6453 11.916 11.874 9.69531 12.1013 7.47397L12.2447 6.08264C12.2517 6.01365 12.2808 5.94876 12.3277 5.89761C12.3745 5.84645 12.4366 5.81175 12.5047 5.79864C12.7727 5.74664 13.0293 5.65731 13.2207 5.45331C13.524 5.12797 13.5847 4.70397 13.4773 4.27597V4.27664ZM12.492 4.79131C12.3953 4.88264 12.25 4.92531 12.1067 4.94664C10.496 5.18597 8.86266 5.30664 7.23466 5.25331C6.06933 5.21331 4.91666 5.08397 3.76333 4.92131C3.64999 4.90531 3.52799 4.88464 3.44999 4.80131C3.30333 4.64397 3.37599 4.32797 3.41399 4.13797C3.44866 3.96464 3.51533 3.73197 3.72266 3.70731C4.04533 3.66931 4.41999 3.80597 4.73999 3.85397C5.12466 3.91264 5.51066 3.95997 5.89799 3.99531C7.55133 4.14597 9.23266 4.12197 10.8793 3.90197C11.1793 3.86197 11.4787 3.81531 11.776 3.76197C12.042 3.71397 12.336 3.62464 12.496 3.89931C12.6067 4.08664 12.6213 4.33731 12.604 4.54864C12.5987 4.64093 12.5584 4.72773 12.4913 4.79131H12.492ZM8.38599 7.39131C7.81133 7.63797 7.15933 7.91664 6.31333 7.91664C5.95973 7.91578 5.60788 7.86712 5.26733 7.77197L5.85199 13.7746C5.89533 14.2946 6.32999 14.6946 6.85199 14.6946C6.85199 14.6946 7.68066 14.738 7.95733 14.738C8.25533 14.738 9.14799 14.6946 9.14799 14.6946C9.66999 14.6946 10.104 14.2946 10.1473 13.7746L10.774 7.14131C10.4913 7.03907 10.1933 6.98542 9.89266 6.98264C9.34199 6.98264 8.89866 7.17197 8.38599 7.39131Z" fill="#3A3A3A"/>
</g>
</svg>
